<svg width="1440" height="404" viewBox="0 0 1440 404" fill="none" xmlns="http://www.w3.org/2000/svg">
<mask id="mask0_2626_1672" style="mask-type:luminance" maskUnits="userSpaceOnUse" x="0" y="0" width="1442" height="405">
<path d="M668.103 404.352H678.592C830.705 378.587 939.26 382.733 1019.41 404.352H1026.54C943.754 380.646 830.139 375.83 668.103 404.352ZM623.8 404.352H632.619C791.637 372.761 906.633 371.296 992.715 388.377C1014.08 392.616 1033.66 398.003 1051.69 404.352H1057C1037.63 397.267 1016.46 391.302 993.194 386.684C905.343 369.254 787.516 371.07 623.8 404.352ZM584.386 404.352H592.43C766.002 365.949 890.415 360.91 983.247 376.771C1019.67 382.994 1051.24 392.442 1079.02 404.352H1083.53C1054.75 391.65 1021.87 381.599 983.66 375.072C889.216 358.936 762.255 364.343 584.386 404.352ZM548.233 404.352H555.697C741.986 359.678 874.738 350.901 973.777 365.168C1025.3 372.589 1067.7 386.258 1103.79 404.352H1107.82C1070.9 385.42 1027.36 371.125 974.127 363.457C873.598 348.975 738.495 358.154 548.233 404.352ZM514.379 404.352H521.426C719.07 353.866 859.408 341.186 964.309 353.561C1031.05 361.435 1083.44 379.467 1127.15 404.352H1130.85C1086.41 378.586 1033 359.913 964.593 351.843C858.289 339.302 715.751 352.41 514.379 404.352ZM482.274 404.352H489.023C696.939 348.466 844.306 331.723 954.837 341.957C1036.85 349.551 1098.6 372.016 1149.79 404.352H1153.23C1101.35 371.1 1038.7 347.977 955.064 340.232C843.184 329.873 693.739 347.061 482.274 404.352ZM451.523 404.352H458.042C675.371 343.432 829.342 322.474 945.367 330.351C1042.58 336.95 1113.16 363.812 1172.12 404.352H1175.38C1115.75 362.851 1044.33 335.325 945.529 328.618C828.205 320.653 672.256 342.076 451.523 404.352ZM421.889 404.352H428.186C654.221 338.742 814.46 313.42 935.895 318.741C1048.04 323.656 1127.1 354.737 1194.4 404.352H1197.53C1129.53 353.733 1049.7 321.992 936.001 317.009C813.308 311.632 651.165 337.45 421.889 404.352ZM393.122 404.352H399.269C633.38 334.397 799.625 304.549 926.422 307.133C1053.07 309.713 1140.37 344.683 1216.75 404.352H1219.79C1142.68 343.627 1054.63 308.013 926.471 305.401C798.439 302.791 630.363 333.155 393.122 404.352ZM365.076 404.352H371.103C612.752 330.388 784.793 295.848 916.945 295.523C1057.5 295.177 1152.96 333.558 1239.2 404.352H1242.15C1155.14 332.449 1058.96 293.442 916.945 293.791C783.571 294.12 609.759 329.194 365.076 404.352ZM337.611 404.352H343.522C592.259 326.709 769.928 287.316 907.471 283.914C1059.18 280.161 1162.09 320.227 1257.84 401.06C1259.14 402.16 1260.43 403.257 1261.72 404.352H1264.62C1262.86 402.852 1261.09 401.348 1259.31 399.838C1163.15 318.652 1059.79 278.412 907.415 282.182C768.673 285.614 589.279 325.571 337.611 404.352ZM310.597 404.352H316.443C571.834 323.383 755.019 278.948 897.999 272.305C1051.62 265.167 1158.86 301.68 1259.56 383.381C1268.31 390.485 1276.66 397.483 1284.65 404.352H1287.54C1279.11 397.082 1270.29 389.669 1261 382.138C1159.87 300.078 1052.16 263.405 897.885 270.572C753.716 277.271 568.864 322.288 310.597 404.352ZM283.937 404.352H289.714C551.417 320.405 740.014 270.743 888.523 260.695C1044.06 250.173 1155.63 283.134 1261.29 365.704C1278.32 379.019 1293.86 391.95 1308.23 404.352H1311.12C1296.34 391.565 1280.32 378.207 1262.7 364.435C1156.58 281.504 1044.54 248.397 888.361 258.963C738.678 269.089 548.442 319.367 283.937 404.352ZM257.508 404.352H263.256C530.944 317.803 724.918 262.697 879.045 249.082C1036.49 235.174 1152.4 264.583 1263.01 348.024C1289.27 367.835 1312.08 386.758 1332.51 404.352H1335.4C1314.59 386.395 1291.3 367.032 1264.4 346.733C1153.31 262.932 1036.92 233.393 878.833 247.356C723.516 261.077 527.95 316.818 257.508 404.352ZM230.849 404.352H236.852C237.467 404.154 238.054 403.993 238.67 403.793C511.199 315.34 710.013 254.785 869.569 237.471C1028.93 220.177 1149.17 246.034 1264.73 330.342C1301.29 357.016 1331.36 382.021 1357.51 404.352H1360.41C1333.91 381.697 1303.39 356.245 1266.09 329.037C1150.03 244.363 1029.3 218.39 869.309 235.752C709.517 253.092 510.587 313.68 237.923 402.175C235.527 402.953 233.216 403.615 230.849 404.352ZM202.201 404.352H208.898C216.629 402.183 224.467 399.874 232.534 397.255C500.313 310.345 698.612 246.566 860.092 225.861C1021.36 205.182 1145.93 227.486 1266.45 312.663C1314.42 346.561 1351.49 377.648 1382.95 404.022L1383.35 404.352H1386.28L1384.42 402.8C1352.92 376.392 1315.8 345.265 1267.79 311.338C1146.75 225.79 1021.68 203.385 859.784 224.143C698.097 244.875 499.698 308.685 231.789 395.638C221.633 398.934 211.819 401.771 202.201 404.352ZM168.925 404.352H177.103C192.776 400.784 209.156 396.316 226.4 390.72C248.211 383.641 269.577 376.686 290.51 369.874C774.174 212.458 1027.57 129.986 1268.17 294.981C1319.8 330.386 1359.19 362.64 1392.25 389.709C1398.43 394.776 1404.4 399.659 1410.18 404.352H1413.17C1406.9 399.282 1400.44 393.992 1393.7 388.472C1360.62 361.38 1321.19 329.098 1269.49 293.642C1027.95 128.004 774.163 210.601 289.765 368.256C268.831 375.069 247.465 382.024 225.654 389.102C205.66 395.592 186.796 400.6 168.925 404.352ZM121.534 404.352H136.078C161.672 400.671 189.643 394.122 220.265 384.183C263.684 370.091 304.918 356.536 344.591 343.494C781.98 199.709 1030.74 117.935 1269.9 277.3C1325.33 314.235 1367.02 347.632 1401.63 375.349C1414.78 385.876 1426.89 395.57 1438.36 404.352H1441.44C1429.49 395.258 1416.85 385.133 1403.07 374.099C1368.42 346.352 1326.68 312.92 1271.19 275.942C1031.09 115.954 781.932 197.86 343.837 341.876C303.848 355.022 262.284 368.686 219.519 382.565C183.262 394.333 150.741 401.32 121.534 404.352ZM0 400.615L0 402.807C1.18612 403.326 2.36168 403.853 3.56655 404.352H9.0149C5.95322 403.164 2.94344 401.924 0 400.615ZM0 395.014L0 397.181C6.15462 399.839 12.5529 402.253 19.2493 404.352H26.3905C17.1052 401.75 8.28349 398.655 0 395.014ZM0 389.34L0 391.539C13.3246 397.201 27.9589 401.549 44.0138 404.352H57.1657C35.8324 401.799 16.8491 396.639 0 389.34ZM1442 297.294V294.991C1401.54 265.57 1350.43 229.054 1279.69 187.462C1033.27 42.5777 788.017 133.101 464.061 252.674C378.314 284.322 287.045 318.01 188.847 349.882C104.58 377.232 43.7041 377.824 0 361.795L0 364.019C44.0488 379.739 105.205 378.889 189.593 351.499C287.908 319.59 379.162 285.907 464.897 254.263C788.243 134.914 1033.04 44.5617 1278.49 188.881C1349.92 230.875 1401.35 267.722 1442 297.294ZM1442 318.985V316.671L1441.49 316.294C1400.97 286.266 1349.85 248.39 1277.99 205.158C1034.21 58.5058 789.991 146.112 452.518 267.173C372.34 295.935 286.891 326.588 194.981 356.419C107.933 384.672 45.0873 384.652 0 367.333L0 369.524C45.4328 386.545 108.542 386.333 195.728 358.036C287.725 328.178 373.164 297.527 453.331 268.769C790.182 147.931 1033.95 60.4866 1276.78 206.565C1348.56 249.751 1399.63 287.592 1440.12 317.591L1442 318.985ZM1442 340.843V338.508C1438.65 335.988 1435.24 333.418 1431.74 330.779C1392.64 301.277 1343.88 264.498 1276.28 222.851C1034.56 73.9217 790.641 159.116 436.272 282.888C362.913 308.511 284.813 335.79 201.116 362.955C111.302 392.105 46.5312 391.375 0 372.765L0 375C46.8696 393.303 111.929 393.762 201.862 364.572C285.7 337.361 363.753 310.099 437.068 284.492C790.796 160.944 1034.28 75.9024 1275.06 224.251C1342.56 265.841 1391.28 302.591 1430.36 332.07C1434.33 335.07 1438.21 337.996 1442 340.843ZM1442 362.838V360.493C1435.62 355.645 1429.01 350.567 1422.09 345.247C1384.43 316.295 1338.02 280.618 1274.59 240.548C1034.24 88.7257 789.728 172.093 414.045 300.183C349.177 322.3 280.396 345.752 207.251 369.492C114.771 399.508 48.029 398.121 0 378.276L0 380.478C48.3674 400.029 115.38 401.169 207.997 371.109C281.409 347.283 350.071 323.872 414.824 301.794C789.847 173.928 1033.93 90.7073 1273.33 241.934C1336.7 281.963 1383.07 317.603 1420.69 346.524C1428.11 352.233 1435.19 357.668 1442 362.838ZM1442 384.948V382.597C1432.71 375.51 1422.96 367.862 1412.53 359.689C1376.37 331.33 1332.31 296.776 1272.88 258.245C1033.13 102.793 786.954 185.019 384.063 319.587C330.143 337.596 273.408 356.547 213.385 376.028C118.315 406.884 49.5867 404.846 0 383.813L0 386.052C49.9188 406.786 118.939 408.541 214.13 377.646C274.006 358.212 330.824 339.234 384.826 321.198C787.036 186.856 1032.8 104.77 1271.62 259.617C1330.94 298.079 1374.97 332.611 1411.11 360.953C1422.07 369.543 1432.29 377.552 1442 384.948ZM0 356.364C42.3541 371.056 101.339 369.756 182.712 343.345C285.67 309.929 381.517 273.485 471.85 239.138C784.904 120.106 1031.82 26.2198 1281.39 169.769C1350.7 209.637 1401.64 244.758 1442 273.492V275.771C1401.46 246.882 1350.21 211.453 1280.21 171.194C1031.62 28.204 785.166 121.913 472.702 240.72C382.367 275.068 286.516 311.514 183.458 344.962C101.966 371.412 42.7114 372.95 0 358.573L0 356.364ZM0 350.846C41.0624 364.2 98.125 362.27 176.577 336.808C283.031 302.257 382.451 263.286 476.587 226.388C780.801 107.145 1029.93 9.49429 1283.09 152.071C1351.02 190.329 1401.72 224.134 1442 252.165V254.424C1401.54 226.232 1350.51 192.135 1281.93 153.511C1029.74 11.4792 781.093 108.943 477.464 227.956C383.284 264.872 283.818 303.861 177.324 338.425C98.7517 363.927 41.4105 366.101 0 353.056L0 350.846ZM0 345.318C39.8197 357.317 94.9711 354.768 170.442 330.273C279.263 294.954 381.477 253.638 478.827 214.289C775.832 94.2368 1027.63 -7.54218 1284.79 134.38C1351.37 171.123 1401.78 203.691 1442 231.019V233.252C1401.6 205.767 1350.87 172.922 1283.65 135.827C1027.48 -5.55334 776.162 96.0289 479.729 215.85C382.349 255.213 280.102 296.542 171.189 331.891C95.579 356.431 40.1599 359.198 0 347.488L0 345.318ZM0 339.705C38.6067 350.37 91.8405 347.256 164.309 323.735C274.599 287.94 378.936 244.445 478.987 202.74C770.094 81.3919 1024.98 -24.8543 1286.5 116.686C1351.76 152.007 1401.85 183.412 1442 210.039V212.252C1401.67 185.468 1351.26 153.8 1285.37 118.139C1024.85 -22.8588 770.457 83.1832 479.912 204.296C379.845 246.008 275.491 289.509 165.056 325.352C92.4708 348.911 38.9567 352.264 0 341.905L0 339.705ZM0 334.06C37.4268 343.397 88.7546 339.73 158.174 317.199C269.231 281.154 375.104 235.647 477.4 191.679C763.677 68.6331 1022.01 -42.3983 1288.2 98.9887C1352.18 132.974 1401.91 163.283 1442 189.222V191.414C1401.75 165.327 1351.69 134.772 1287.08 100.456C1021.89 -40.402 764.061 70.4147 478.342 193.222C375.993 237.212 270.065 282.742 158.921 318.816C89.367 341.391 37.7679 345.272 0 336.218L0 334.06ZM0 328.291C36.2584 336.352 85.6662 332.204 152.04 310.662C263.172 274.591 370.129 227.205 474.326 181.041C756.633 55.9676 1018.73 -60.1505 1289.9 81.2956C1352.65 114.029 1402 143.302 1442 168.56V170.734C1401.82 145.324 1352.15 115.815 1288.8 82.7701C1018.64 -58.1491 757.055 57.7449 475.293 182.577C371.055 228.76 264.052 276.166 152.786 312.279C86.2704 333.867 36.5933 338.22 0 330.431L0 328.291ZM0 322.461C35.1322 329.254 82.6072 324.67 145.905 304.125C256.599 268.199 364.218 219.071 469.978 170.792C749.029 43.4086 1015.18 -78.0849 1291.6 63.6018C1353.16 95.1559 1402.09 123.45 1442 148.047V150.199C1401.91 125.455 1352.66 96.9342 1290.52 65.084C1015.12 -76.0826 749.48 45.1773 470.97 172.314C365.149 220.62 257.469 269.776 146.652 305.742C83.1989 326.337 35.4421 331.125 0 324.57L0 322.461Z" fill="white"/>
</mask>
<g mask="url(#mask0_2626_1672)">
<path d="M0 10L0 417L1442 417V10L0 10Z" fill="white" fill-opacity="0.3"/>
</g>
</svg>
